<?xml version="1.0" encoding="UTF-8"?>
<svg id="Layer_1" xmlns="http://www.w3.org/2000/svg" version="1.1" viewBox="0 0 651.97 204.02">
  <!-- Generator: Adobe Illustrator 30.7.0, SVG Export Plug-In . SVG Version: 2.1.4 Build 40)  -->
  <defs>
    <style>
      .st0 {
        fill: none;
      }

      .st1 {
        fill: #08ffb1;
      }
    </style>
  </defs>
  <path class="st1" d="M213.93,129.88h-.08c-.92.04-1.91.69-2.25,1.49-.52,1.19.59,2.72,1.29,3.52,1.09,1.24,2.47,2.35,4.12,3.3-.16-2.98-.72-5.48-1.63-7.22-.49-.93-.98-1.1-1.44-1.1M326.57,100.04c-1.04,0-2.31.21-3.72.64-9.83,3.03-21.59,16.51-22.61,27.78,12.88-5.81,23.13-12.7,27.46-19.34,2.31-3.54,2.51-6.86,1.52-8.17-.46-.6-1.39-.91-2.65-.91M433.37,95.39c-2.61,0-6.59.69-11.93,3.09-13.37,6.03-19.16,17.34-18.41,26.06,10.47-5.42,19.44-11.17,25.52-16.33,8.56-7.26,8.87-11.46,8.57-11.94-.24-.37-1.48-.88-3.75-.88M560.61,30.86c-1.02,1.59-2.15,3.65-3.27,6.14-10.66,23.79-14.66,50.57-12.34,72.06,10.32-26.7,15.67-57.61,15.72-74.38,0-1.52-.04-2.78-.11-3.81M129.93,77.41c-9.36,0-18.35-.15-26.95-.45-6.68,13.98-15.63,29.68-27.21,46.3,1.02,3.63,2.37,7.13,4.05,10.49,7.41,14.77,20.7,23.67,34.22,23.11,9.28-.35,18-4.91,25.42-13.03,3.84-11.39,8.59-21.13,10.23-23.94,4.15-7.12,8.61-5.92,10.32-5.08,3.49,1.72,4.58,6.18,2.66,10.86-3.78,9.25-8.49,17.13-13.88,23.47-4.19,13.63-6.16,27.1-2.12,29.92.83.58,1.17.5,1.33.48,2.82-.55,7.44-7.71,10.82-12.93,3.71-5.74,7.55-11.69,12.15-15.55,1.64-1.39,3.96-1.63,5.86-.6,1.89,1.01,2.98,3.08,2.73,5.21-1.58,14.14,3.46,23.02,9.15,25.55,4.7,2.06,10.07.24,14.77-5.07,6.82-7.69,10.92-17.81,12.63-26.76-4.32-1.74-8.17-4.19-11.14-7.59-3.97-4.55-5.06-9.86-3.02-14.59,1.94-4.49,6.57-7.63,11.51-7.82,4.76-.16,8.93,2.32,11.22,6.7,2.06,3.92,2.99,9.41,2.82,15.63,5.34.95,11.75,1.19,19.04.69,14.04-.98,29.51-4.65,43.26-9.7-1.81-17.16,14.88-37.42,29.97-42.07,10.85-3.33,16.1,1.68,17.84,3.99,3.94,5.22,3.5,13.16-1.11,20.23-5.83,8.94-18.23,17.16-33.02,23.67,4.75,4.96,13.81,6.7,21.62,7.21,20.08,1.34,46.18-6.41,68.09-16.4-3.66-15.28,6.57-32.59,23.95-40.42,13.11-5.91,24.45-5.23,28.86,1.77,2.05,3.23,5.1,12.19-10.65,25.55-6.74,5.71-16.49,11.98-27.84,17.83,4.3,4.07,11.46,5.94,20.74,5.22,14.12-1.08,26.08-10.81,37.64-20.22,5.27-4.29,10.6-8.63,16.18-12.2,2.03-2.24,4.26-4.22,6.66-5.85,11.13-7.54,24.16-6.79,35.79,2.05,2.13,1.62,2.7,4.59,1.32,6.89-1.39,2.3-4.29,3.18-6.7,2.06-11.35-5.24-20.87-2.74-30.28,3-6.96,8.33-10.52,20.92-7.87,30.39,2.18,7.82,8.15,12.04,17.74,12.53,7.84.38,15.55-2.84,22.73-9.64,6.1-5.78,11.51-13.71,16.21-22.81-7.09-25.51-4.05-61.25,10.08-92.79,5.14-11.46,10.51-16.67,16.11-15.48,6.51,1.4,7.38,9.62,7.36,17.47-.04,17.62-6.77,59.71-22.42,92.05,2.91,8.38,7.25,14.98,12.96,18.89,15.09,10.34,39,.22,67.31-28.49,2.05-2.07,5.36-2.09,7.43-.05,2.07,2.04,2.09,5.36.05,7.43-41.38,41.96-66.76,39.35-80.73,29.78-5.43-3.71-9.88-9.2-13.3-16.01-4.11,6.75-8.73,12.77-13.85,17.62-9.35,8.86-19.66,13.12-30.48,12.51-13.99-.72-23.95-8.08-27.34-20.19-1.7-6.07-1.57-12.97.02-19.69-12.3,9.99-25.16,19.93-41.83,21.21-15.7,1.24-25.81-3.97-31.29-10.95-23.38,10.71-51.17,18.87-73.35,17.42-18.15-1.17-26.93-7.3-31.1-13.61-15.25,5.56-31.88,9.29-46.05,10.28-6.46.45-13.91.45-21.01-.74-2.16,10.73-7.13,22.18-14.92,30.97-5.49,6.2-12.1,9.47-18.67,9.47-2.78,0-5.54-.58-8.22-1.77-7.74-3.43-13-11.29-14.89-21.45-.64.97-1.27,1.96-1.91,2.94-5.36,8.29-10.42,16.13-17.62,17.55-2.24.45-5.67.41-9.37-2.18-6.93-4.83-7.65-15.26-5.72-26.55-6.37,3.82-13.27,5.96-20.49,6.24-17.83.76-34.75-10.4-44.02-28.9-9.25-18.45-9.88-40.6-2.52-63.73-20.74-2.03-38.39-5.21-52.75-9.55-2.77-.84-4.34-3.77-3.5-6.55.83-2.78,3.76-4.36,6.55-3.5,14.42,4.36,32.31,7.51,53.42,9.47,5.64-13.62,13.96-27.43,24.85-40.92,4.26-5.27,10.64-11.94,17.13-9.06,7.09,3.16,5.28,14.38,4.69,18.06-1.38,8.56-4.8,20.22-10.66,34.02,87.71,2.5,215.49-10.32,372.89-37.87,2.81-.52,5.58,1.4,6.09,4.26.5,2.86-1.42,5.58-4.28,6.08-144.8,25.35-264.95,38.26-352.39,38.26M78.63,75.65c-3.83,11.19-5.6,22.08-5.22,32.3,7.23-11.12,13.22-21.72,18.07-31.48-4.4-.23-8.68-.5-12.86-.82M108.41,26.15c-.96.88-2.2,2.18-3.76,4.12-9.42,11.67-16.79,23.54-22,35.21,4.43.31,8.98.57,13.66.79,6.56-14.72,10.26-26.94,11.6-35.27.34-2.09.47-3.67.5-4.84"/>
  <rect class="st0" width="651.97" height="204.02"/>
</svg>